<svg width="40" height="40" viewBox="0 0 40 40" fill="none" xmlns="http://www.w3.org/2000/svg">
<path d="M25.8334 3.75C25.8334 3.41848 25.9651 3.10054 26.1995 2.86612C26.4339 2.6317 26.7519 2.5 27.0834 2.5H36.2501C36.5816 2.5 36.8995 2.6317 37.1339 2.86612C37.3684 3.10054 37.5001 3.41848 37.5001 3.75V12.9167C37.5001 13.2482 37.3684 13.5661 37.1339 13.8005C36.8995 14.035 36.5816 14.1667 36.2501 14.1667C35.9185 14.1667 35.6006 14.035 35.3662 13.8005C35.1317 13.5661 35.0001 13.2482 35.0001 12.9167V6.76667L24.6334 17.1333C24.5189 17.2561 24.3809 17.3546 24.2276 17.423C24.0743 17.4913 23.9088 17.528 23.7409 17.531C23.5731 17.5339 23.4064 17.5031 23.2507 17.4402C23.0951 17.3773 22.9537 17.2838 22.835 17.1651C22.7163 17.0464 22.6227 16.905 22.5598 16.7493C22.497 16.5937 22.4661 16.427 22.4691 16.2591C22.472 16.0913 22.5088 15.9258 22.5771 15.7724C22.6454 15.6191 22.7439 15.4811 22.8667 15.3667L33.2334 5H27.0834C26.7519 5 26.4339 4.8683 26.1995 4.63388C25.9651 4.39946 25.8334 4.08152 25.8334 3.75Z" fill="white"/>
<path d="M4.16663 7.08329C4.16663 5.47329 5.47329 4.16663 7.08329 4.16663H21.25C21.5815 4.16663 21.8994 4.29832 22.1338 4.53274C22.3683 4.76716 22.5 5.08511 22.5 5.41663C22.5 5.74815 22.3683 6.06609 22.1338 6.30051C21.8994 6.53493 21.5815 6.66663 21.25 6.66663H7.08329C6.97279 6.66663 6.8668 6.71052 6.78866 6.78866C6.71052 6.8668 6.66663 6.97279 6.66663 7.08329V32.9166C6.66663 33.1466 6.85329 33.3333 7.08329 33.3333H32.9166C33.0271 33.3333 33.1331 33.2894 33.2113 33.2113C33.2894 33.1331 33.3333 33.0271 33.3333 32.9166V18.75C33.3333 18.4184 33.465 18.1005 33.6994 17.8661C33.9338 17.6317 34.2518 17.5 34.5833 17.5C34.9148 17.5 35.2328 17.6317 35.4672 17.8661C35.7016 18.1005 35.8333 18.4184 35.8333 18.75V32.9166C35.8333 33.6902 35.526 34.432 34.979 34.979C34.432 35.526 33.6902 35.8333 32.9166 35.8333H7.08329C6.30974 35.8333 5.56788 35.526 5.0209 34.979C4.47392 34.432 4.16663 33.6902 4.16663 32.9166V7.08329Z" fill="white"/>
</svg>
