<svg width="64" height="64" viewBox="0 0 64 64" fill="none" xmlns="http://www.w3.org/2000/svg">
<path d="M32 5.33325C28.4981 5.33325 25.0305 6.02301 21.7951 7.36313C18.5598 8.70326 15.6201 10.6675 13.1439 13.1437C8.14289 18.1447 5.33337 24.9275 5.33337 31.9999C5.33337 43.7866 12.9867 53.7866 23.5734 57.3333C24.9067 57.5466 25.3334 56.7199 25.3334 55.9999V51.4933C17.9467 53.0933 16.3734 47.9199 16.3734 47.9199C15.1467 44.8266 13.4134 43.9999 13.4134 43.9999C10.9867 42.3466 13.6 42.3999 13.6 42.3999C16.2667 42.5866 17.68 45.1466 17.68 45.1466C20 49.1999 23.92 47.9999 25.44 47.3599C25.68 45.6266 26.3734 44.4533 27.12 43.7866C21.2 43.1199 14.9867 40.8266 14.9867 30.6666C14.9867 27.7066 16 25.3333 17.7334 23.4399C17.4667 22.7733 16.5334 19.9999 18 16.3999C18 16.3999 20.24 15.6799 25.3334 19.1199C27.44 18.5333 29.7334 18.2399 32 18.2399C34.2667 18.2399 36.56 18.5333 38.6667 19.1199C43.76 15.6799 46 16.3999 46 16.3999C47.4667 19.9999 46.5334 22.7733 46.2667 23.4399C48 25.3333 49.0134 27.7066 49.0134 30.6666C49.0134 40.8533 42.7734 43.0933 36.8267 43.7599C37.7867 44.5866 38.6667 46.2133 38.6667 48.6933V55.9999C38.6667 56.7199 39.0934 57.5733 40.4534 57.3333C51.04 53.7599 58.6667 43.7866 58.6667 31.9999C58.6667 28.498 57.977 25.0304 56.6368 21.795C55.2967 18.5597 53.3324 15.62 50.8562 13.1437C48.38 10.6675 45.4403 8.70326 42.2049 7.36313C38.9696 6.02301 35.502 5.33325 32 5.33325Z" fill="white"/>
</svg>
