<svg width="48" height="48" viewBox="0 0 48 48" fill="none" xmlns="http://www.w3.org/2000/svg">
<path fill-rule="evenodd" clip-rule="evenodd" d="M41.5 14C41.5 14.3978 41.342 14.7794 41.0607 15.0607C40.7794 15.342 40.3978 15.5 40 15.5H8C7.60218 15.5 7.22064 15.342 6.93934 15.0607C6.65804 14.7794 6.5 14.3978 6.5 14C6.5 13.6022 6.65804 13.2206 6.93934 12.9393C7.22064 12.658 7.60218 12.5 8 12.5H40C40.3978 12.5 40.7794 12.658 41.0607 12.9393C41.342 13.2206 41.5 13.6022 41.5 14ZM41.5 24C41.5 24.3978 41.342 24.7794 41.0607 25.0607C40.7794 25.342 40.3978 25.5 40 25.5H8C7.60218 25.5 7.22064 25.342 6.93934 25.0607C6.65804 24.7794 6.5 24.3978 6.5 24C6.5 23.6022 6.65804 23.2206 6.93934 22.9393C7.22064 22.658 7.60218 22.5 8 22.5H40C40.3978 22.5 40.7794 22.658 41.0607 22.9393C41.342 23.2206 41.5 23.6022 41.5 24ZM41.5 34C41.5 34.3978 41.342 34.7794 41.0607 35.0607C40.7794 35.342 40.3978 35.5 40 35.5H8C7.60218 35.5 7.22064 35.342 6.93934 35.0607C6.65804 34.7794 6.5 34.3978 6.5 34C6.5 33.6022 6.65804 33.2206 6.93934 32.9393C7.22064 32.658 7.60218 32.5 8 32.5H40C40.3978 32.5 40.7794 32.658 41.0607 32.9393C41.342 33.2206 41.5 33.6022 41.5 34Z" fill="white"/>
</svg>
