<svg width="40" height="40" viewBox="0 0 40 40" fill="none" xmlns="http://www.w3.org/2000/svg">
<path fill-rule="evenodd" clip-rule="evenodd" d="M19.9997 36.6666C12.143 36.6666 8.21467 36.6666 5.77301 34.2249C3.33301 31.7866 3.33301 27.8566 3.33301 19.9999C3.33301 12.1433 3.33301 8.21492 5.77301 5.77325C8.21634 3.33325 12.143 3.33325 19.9997 3.33325C27.8563 3.33325 31.7847 3.33325 34.2247 5.77325C36.6663 8.21659 36.6663 12.1433 36.6663 19.9999C36.6663 27.8566 36.6663 31.7849 34.2247 34.2249C31.7863 36.6666 27.8563 36.6666 19.9997 36.6666ZM19.9997 12.9166C18.9647 12.9166 18.1247 13.7566 18.1247 14.7916C18.1247 15.1231 17.993 15.441 17.7586 15.6755C17.5241 15.9099 17.2062 16.0416 16.8747 16.0416C16.5432 16.0416 16.2252 15.9099 15.9908 15.6755C15.7564 15.441 15.6247 15.1231 15.6247 14.7916C15.6247 14.0748 15.8008 13.369 16.1376 12.7363C16.4743 12.1035 16.9614 11.5632 17.5559 11.1629C18.1504 10.7625 18.8342 10.5143 19.5472 10.4402C20.2601 10.3661 20.9803 10.4682 21.6445 10.7377C22.3087 11.0072 22.8965 11.4357 23.3562 11.9856C23.8159 12.5355 24.1335 13.19 24.281 13.8914C24.4285 14.5928 24.4014 15.3198 24.2021 16.0083C24.0028 16.6968 23.6374 17.3258 23.138 17.8399C22.9847 17.9983 22.838 18.1449 22.698 18.2849C22.3595 18.6073 22.0416 18.9508 21.7463 19.3133C21.3797 19.7833 21.2497 20.1283 21.2497 20.4166V21.6666C21.2497 21.9981 21.118 22.316 20.8836 22.5505C20.6491 22.7849 20.3312 22.9166 19.9997 22.9166C19.6682 22.9166 19.3502 22.7849 19.1158 22.5505C18.8814 22.316 18.7497 21.9981 18.7497 21.6666V20.4166C18.7497 19.3249 19.258 18.4399 19.773 17.7783C20.1547 17.2883 20.633 16.8116 21.023 16.4216C21.1397 16.3049 21.2497 16.1966 21.3447 16.0983C21.6015 15.8339 21.7748 15.4997 21.8428 15.1375C21.9108 14.7753 21.8705 14.401 21.727 14.0615C21.5835 13.722 21.3431 13.4324 21.0359 13.2287C20.7287 13.0251 20.3682 12.9165 19.9997 12.9166ZM19.9997 28.3333C20.4417 28.3333 20.8656 28.1577 21.1782 27.8451C21.4907 27.5325 21.6663 27.1086 21.6663 26.6666C21.6663 26.2246 21.4907 25.8006 21.1782 25.4881C20.8656 25.1755 20.4417 24.9999 19.9997 24.9999C19.5576 24.9999 19.1337 25.1755 18.8212 25.4881C18.5086 25.8006 18.333 26.2246 18.333 26.6666C18.333 27.1086 18.5086 27.5325 18.8212 27.8451C19.1337 28.1577 19.5576 28.3333 19.9997 28.3333Z" fill="white"/>
</svg>
