<svg width="40" height="40" viewBox="0 0 40 40" fill="none" xmlns="http://www.w3.org/2000/svg">
<path d="M28.2817 28.2117C28.7058 28.6045 29.2054 28.9071 29.75 29.101C30.2946 29.295 30.873 29.3763 31.45 29.34C32.3644 29.3632 33.261 29.085 34.0017 28.5483C34.605 28.1567 35.0617 27.575 35.3 26.8983H39.6083C39.1493 28.8279 38.0289 30.5357 36.4417 31.725C34.918 32.7361 33.1177 33.2486 31.29 33.1917C29.9856 33.2087 28.691 32.9633 27.4833 32.47C26.3904 32.0147 25.4103 31.3258 24.6117 30.4517C23.8164 29.536 23.2052 28.4755 22.8117 27.3283C22.3705 26.0456 22.1545 24.6963 22.1733 23.34C22.165 22.0066 22.3883 20.6817 22.8333 19.425C23.4335 17.6579 24.5767 16.1256 26.0996 15.0469C27.6224 13.9682 29.4472 13.3982 31.3133 13.4183C32.6916 13.3897 34.0544 13.7127 35.2733 14.3566C36.375 14.96 37.325 15.8066 38.0533 16.8316C38.7974 17.9066 39.3307 19.1129 39.625 20.3867C39.9483 21.755 40.0633 23.1633 39.9667 24.5667H27.135C27.03 25.8833 27.4417 27.19 28.2817 28.2117ZM11.5783 6.80665C12.6588 6.78708 13.7377 6.89788 14.7917 7.13665C15.6795 7.33008 16.5223 7.69096 17.275 8.19998C17.9717 8.70498 18.5217 9.38498 18.8717 10.17C19.2733 11.135 19.4667 12.175 19.44 13.22C19.4865 14.3687 19.1932 15.5056 18.5967 16.4883C17.9703 17.416 17.1047 18.1572 16.0917 18.6333C17.4671 19.0038 18.6651 19.8531 19.47 21.0283C20.2433 22.2733 20.6317 23.72 20.5867 25.185C20.6132 26.3529 20.372 27.5113 19.8817 28.5717C19.4291 29.4977 18.7651 30.3044 17.9433 30.9267C17.0988 31.5433 16.1479 31.9992 15.1383 32.2717C14.092 32.5616 13.0108 32.7068 11.925 32.7033H0V6.80665H11.5783ZM11.1867 28.3067C11.7 28.3133 12.2133 28.2583 12.7133 28.1417C13.1706 28.0412 13.6041 27.8533 13.99 27.5883C14.37 27.325 14.675 26.97 14.88 26.5567C15.1167 26.0283 15.2267 25.4517 15.1983 24.875C15.2499 24.3485 15.1803 23.8172 14.9948 23.3217C14.8093 22.8263 14.513 22.3799 14.1283 22.0167C13.3124 21.4165 12.313 21.1189 11.3017 21.175H5.40167V28.3067H11.1867ZM33.9117 18.3617C33.5527 18.0025 33.1208 17.7246 32.6453 17.5467C32.1697 17.3687 31.6615 17.2948 31.155 17.33C30.4824 17.3039 29.8146 17.4526 29.2167 17.7616C28.7429 18.0221 28.325 18.3732 27.9867 18.795C27.6853 19.1894 27.4614 19.6373 27.3267 20.115C27.2033 20.5133 27.1267 20.9233 27.0983 21.3383H35.0467C34.977 20.2555 34.5826 19.2187 33.915 18.3633L33.9117 18.3617ZM10.89 17.2817C11.7394 17.3164 12.5755 17.062 13.2617 16.56C13.9267 15.9683 14.2733 15.0933 14.195 14.205C14.2166 13.6934 14.1149 13.184 13.8983 12.72C13.7136 12.3513 13.4274 12.0431 13.0733 11.8316C12.7143 11.5989 12.3107 11.4434 11.8883 11.375C11.43 11.2854 10.9636 11.2446 10.4967 11.2533H5.40167V17.305H10.89V17.2817ZM36.0333 8.53665H26.0733V11.0816H36.0333V8.53665Z" fill="white"/>
</svg>
