<svg width="40" height="40" viewBox="0 0 40 40" fill="none" xmlns="http://www.w3.org/2000/svg">
<g clip-path="url(#clip0_549_32)">
<path d="M11.7169 0.14083C9.58859 0.24083 8.13526 0.58083 6.86693 1.07916C5.53249 1.58317 4.3243 2.3727 3.32693 3.3925C2.3115 4.39277 1.52657 5.60258 1.02693 6.9375C0.535259 8.21083 0.200259 9.6675 0.106926 11.7942C0.0135922 13.9242 -0.00807448 14.6075 0.00192552 20.0392C0.0135922 25.4708 0.0369255 26.1508 0.140259 28.2842C0.241926 30.4125 0.580259 31.8658 1.07859 33.1358C1.59193 34.4508 2.27859 35.5642 3.39193 36.6742C4.39296 37.6902 5.60401 38.4752 6.94026 38.9742C8.21193 39.4658 9.66693 39.8008 11.7953 39.8942C13.9253 39.9875 14.6103 40.0092 20.0403 39.9992C25.4686 39.9875 26.1536 39.9642 28.2853 39.8625C30.4186 39.7625 31.8636 39.4208 33.1353 38.9242C34.4689 38.4196 35.6765 37.6301 36.6736 36.6108C37.6893 35.6095 38.4742 34.3985 38.9736 33.0625C39.4653 31.7908 39.8003 30.3358 39.8919 28.2092C39.9853 26.0758 40.0086 25.3925 39.9969 19.9625C39.9869 14.5325 39.9636 13.8508 39.8619 11.7175C39.7619 9.58416 39.4219 8.1375 38.9219 6.86583C38.4173 5.53258 37.6285 4.32517 36.6103 3.3275C35.6102 2.31099 34.3996 1.52592 33.0636 1.0275C31.7903 0.537496 30.3369 0.20083 28.2069 0.11083C26.0786 0.0158297 25.3936 -0.0091703 19.9619 0.000829705C14.5303 0.014163 13.8503 0.0358297 11.7169 0.14083ZM11.9503 36.2958C10.0003 36.2125 8.94193 35.8875 8.23693 35.6158C7.36777 35.2961 6.58089 34.7865 5.93359 34.1242C5.26728 33.4811 4.75456 32.6961 4.43359 31.8275C4.15859 31.1225 3.82859 30.0642 3.73859 28.1142C3.63859 26.0075 3.61859 25.3742 3.60526 20.0342C3.59526 14.6942 3.61526 14.0625 3.70693 11.9542C3.79026 10.0058 4.11693 8.94583 4.38693 8.24083C4.74693 7.30583 5.18193 6.64083 5.87859 5.9375C6.52248 5.27142 7.30799 4.75876 8.17693 4.4375C8.88193 4.1625 9.93859 3.83583 11.8886 3.7425C13.9969 3.6425 14.6286 3.6225 19.9686 3.60916C25.3069 3.59916 25.9403 3.61916 28.0519 3.7125C29.9986 3.79583 31.0586 4.11916 31.7636 4.3925C32.6969 4.7525 33.3636 5.18416 34.0669 5.88416C34.7686 6.58416 35.2019 7.24583 35.5669 8.18083C35.8419 8.88416 36.1703 9.94083 36.2619 11.8925C36.3619 14.0008 36.3853 14.6342 36.3953 19.9725C36.4036 25.3108 36.3853 25.9442 36.2936 28.0525C36.2086 30.0025 35.8853 31.0608 35.6136 31.7692C35.2536 32.7025 34.8186 33.3692 34.1203 34.0692C33.4768 34.735 32.6919 35.2477 31.8236 35.5692C31.1203 35.8442 30.0603 36.1725 28.1136 36.2658C26.0036 36.3658 25.3719 36.3858 20.0303 36.3975C14.6903 36.4092 14.0603 36.3858 11.9503 36.2958ZM28.2553 9.31083C28.2559 9.78558 28.3974 10.2495 28.6617 10.6438C28.926 11.0382 29.3014 11.3452 29.7403 11.5262C30.1792 11.7072 30.6619 11.754 31.1274 11.6606C31.5928 11.5672 32.0201 11.3379 32.3553 11.0016C32.6904 10.6653 32.9182 10.2372 33.01 9.77142C33.1018 9.30562 33.0533 8.82308 32.8708 8.38482C32.6883 7.94656 32.3799 7.57227 31.9846 7.30931C31.5894 7.04634 31.125 6.90651 30.6503 6.9075C30.014 6.90882 29.4044 7.16272 28.9553 7.61339C28.5062 8.06405 28.2544 8.6746 28.2553 9.31083ZM9.73193 20.0208C9.73723 22.7444 10.8242 25.3543 12.7538 27.2764C14.6834 29.1985 17.2975 30.2753 20.0211 30.27C22.7446 30.2647 25.3545 29.1777 27.2766 27.2481C29.1987 25.3185 30.2756 22.7044 30.2703 19.9808C30.231 17.2797 29.1291 14.7029 27.2032 12.8085C25.2774 10.9142 22.6827 9.85488 19.9813 9.86014C17.28 9.8654 14.6894 10.9348 12.771 12.8366C10.8525 14.7385 9.76067 17.3196 9.73193 20.0208ZM13.3336 20.0142C13.331 18.6956 13.7194 17.4059 14.4497 16.3081C15.1801 15.2103 16.2196 14.3538 17.4367 13.8468C18.6539 13.3397 19.9941 13.205 21.2878 13.4597C22.5815 13.7143 23.7706 14.3469 24.7049 15.2774C25.6391 16.2079 26.2764 17.3945 26.5362 18.6872C26.796 19.9799 26.6667 21.3206 26.1645 22.5397C25.6624 23.7589 24.81 24.8018 23.7151 25.5366C22.6203 26.2713 21.3321 26.6649 20.0136 26.6675C19.1381 26.6693 18.2709 26.4985 17.4614 26.1651C16.6518 25.8317 15.9159 25.3421 15.2956 24.7243C14.6753 24.1065 14.1828 23.3725 13.8462 22.5644C13.5095 21.7562 13.3353 20.8896 13.3336 20.0142Z" fill="white"/>
</g>
<defs>
<clipPath id="clip0_549_32">
<rect width="40" height="40" fill="white"/>
</clipPath>
</defs>
</svg>
