<svg width="34" height="34" viewBox="0 0 34 34" fill="none" xmlns="http://www.w3.org/2000/svg">
<g clip-path="url(#clip0_549_36)">
<path d="M17 34C7.62875 34 0 26.3712 0 17C0 7.62875 7.62875 0 17 0C26.3712 0 34 7.62875 34 17C34 26.3712 26.3712 34 17 34ZM31.3367 19.3262C30.8408 19.1703 26.8458 17.9761 22.2927 18.7057C24.191 23.9247 24.9659 28.1747 25.1147 29.0587C26.7615 27.947 28.1635 26.51 29.2342 24.8363C30.305 23.1625 31.0219 21.2873 31.3409 19.3262H31.3367ZM22.6737 30.3875C22.457 29.1125 21.6112 24.6755 19.5712 19.38L19.4777 19.4083C11.2752 22.2629 8.34275 27.9438 8.08775 28.475C10.6296 30.4687 13.7681 31.5495 16.9986 31.5435C19.0102 31.5435 20.9227 31.1327 22.6652 30.3903L22.6737 30.3875ZM6.21208 26.7325C6.54075 26.1658 10.5258 19.5712 18.0157 17.1487C18.207 17.085 18.3982 17.0297 18.5895 16.9787C18.2212 16.15 17.8245 15.3255 17.4108 14.5137C10.1575 16.6812 3.12517 16.5892 2.48767 16.575L2.482 17.017C2.482 20.7471 3.89583 24.1528 6.2135 26.7283L6.21208 26.7325ZM2.78375 14.0462C3.43542 14.0576 9.418 14.0831 16.2095 12.2782C14.567 9.38438 12.7699 6.58099 10.8262 3.88025C8.79264 4.83761 7.00843 6.25288 5.61337 8.01514C4.21831 9.7774 3.25029 11.8388 2.78517 14.0378L2.78375 14.0462ZM13.6 2.907C13.9995 3.44533 16.6388 7.03517 19.0145 11.407C24.1782 9.47325 26.367 6.53367 26.6262 6.1625C23.9771 3.79923 20.5501 2.49498 17 2.499C15.8312 2.499 14.6908 2.64067 13.6 2.90275V2.907ZM28.2412 7.84125C27.9324 8.25208 25.5 11.373 20.1322 13.5646C20.4722 14.2587 20.7981 14.96 21.0956 15.6697C21.2089 15.9247 21.3081 16.1797 21.4072 16.4206C26.2381 15.8114 31.0406 16.7889 31.5222 16.8881C31.4939 13.4597 30.2756 10.3147 28.2498 7.84975L28.2412 7.84125Z" fill="white"/>
</g>
<defs>
<clipPath id="clip0_549_36">
<rect width="34" height="34" fill="white"/>
</clipPath>
</defs>
</svg>
