<svg width="40" height="40" viewBox="0 0 40 40" fill="none" xmlns="http://www.w3.org/2000/svg">
<g clip-path="url(#clip0_628_2)">
<path d="M34.0783 34.0867H28.155V24.805C28.155 22.5917 28.11 19.7433 25.0683 19.7433C21.98 19.7433 21.5083 22.1517 21.5083 24.6417V34.0867H15.585V15H21.275V17.6017H21.3517C22.1467 16.1017 24.08 14.5183 26.9683 14.5183C32.97 14.5183 34.08 18.4683 34.08 23.61L34.0783 34.0867ZM8.895 12.3883C8.44301 12.389 7.99533 12.3004 7.57766 12.1276C7.15998 11.9549 6.78053 11.7013 6.46108 11.3816C6.14163 11.0618 5.88846 10.6821 5.71609 10.2643C5.54373 9.84642 5.45557 9.39866 5.45667 8.94667C5.457 8.2663 5.65907 7.60131 6.03734 7.03579C6.4156 6.47026 6.95307 6.02961 7.58178 5.76955C8.21048 5.50949 8.90218 5.4417 9.56941 5.57476C10.2366 5.70781 10.8494 6.03574 11.3303 6.51707C11.8112 6.99839 12.1385 7.6115 12.2709 8.27886C12.4033 8.94622 12.3348 9.63785 12.0742 10.2663C11.8135 10.8948 11.3723 11.4318 10.8064 11.8095C10.2406 12.1872 9.57537 12.3887 8.895 12.3883ZM11.865 34.0867H5.925V15H11.865V34.0867ZM37.0417 0H2.95167C1.32 0 0 1.29 0 2.88167V37.1183C0 38.7117 1.32 40 2.95167 40H37.0367C38.6667 40 40 38.7117 40 37.1183V2.88167C40 1.29 38.6667 0 37.0367 0H37.0417Z" fill="white"/>
</g>
<defs>
<clipPath id="clip0_628_2">
<rect width="40" height="40" fill="white"/>
</clipPath>
</defs>
</svg>
